<svg width="120" height="40" viewBox="0 0 120 40" fill="none" xmlns="http://www.w3.org/2000/svg">
<path d="M18.6533 9.11551V29.6704L21.2144 30.1398V30.3513H12.5996V30.1398L15.1978 29.6704V11.0858" fill="black"/>
<path d="M3.65921 13.4328L3.6354 10.628C3.6354 7.44078 8.95356 0.12749 11.2052 0C12.6022 0.12749 16.3699 2.64542 17.8965 4.79247L15.1052 6.92503C13.7822 5.25317 11.1655 2.46577 9.81346 2.46577C8.75512 2.46577 7.91109 3.10322 7.28932 4.2941L7.22053 12.7954V13.4763L7.09088 29.6704L9.65206 30.134V30.3484H1.03452V30.134L3.6354 29.6675V14.1543" fill="black"/>
<path d="M26.3315 30.4238H26.0987C25.2044 30.4238 23.7677 28.6389 23.7677 27.2771C24.3895 26.0891 25.4769 25.0663 26.2918 24.0898C23.5746 22.9975 21.4976 20.5317 21.4976 17.6748C21.4976 13.3807 27.3502 9.85152 29.7156 9.85152C31.192 9.85152 32.8139 10.1413 33.9013 10.6599C34.793 10.9497 35.5708 11.5292 36.7721 11.5292C37.6664 11.5292 37.7828 10.2514 37.0049 9.50093L39.0766 9.13874C39.2803 10.008 39.3412 10.2775 39.156 10.7961C38.5104 12.6099 35.6423 11.6943 35.4518 11.6654C36.1466 12.26 36.7074 13.0215 37.0909 13.8912C37.4744 14.7608 37.6704 15.7152 37.6637 16.6809C37.6637 20.2535 31.8428 24.7157 29.6679 24.7157C28.6568 24.7209 27.6503 24.5637 26.6808 24.2492C26.059 24.7997 25.514 25.3531 25.4769 26.4571C25.4769 27.138 25.9426 27.309 26.4083 27.3524C26.7575 27.393 30.1733 27.5639 31.1443 27.6074C36.3064 27.8189 39.9947 28.8388 39.9153 33.217C39.8386 37.2561 32.5413 39.9334 31.1046 39.9334C30.5993 39.9768 30.0966 39.9768 29.5912 39.9768C22.8364 39.7219 21.7489 37.427 21.7489 33.6864C23.0692 32.5187 24.8551 31.5422 26.3315 30.4238ZM29.9405 38.9685C35.3751 39.1395 37.0049 36.9403 37.0049 34.3325C37.0049 30.8874 33.5494 30.4643 27.2152 30.4209C25.8923 31.7392 25.3631 33.0141 25.3631 34.289C25.3605 37.1518 27.4957 38.8961 29.9405 38.9801V38.9685ZM29.7473 24.0058C32.3456 24.0058 34.1315 21.3691 34.1315 17.4575C34.1315 12.7838 32.163 10.573 29.4457 10.573C26.8448 10.573 24.834 12.7114 24.834 16.8345C24.834 21.0967 26.9136 24.0174 29.7473 24.0174V24.0058Z" fill="black"/>
<path d="M72.5122 30.134V30.3484H63.5005V30.134L66.1463 29.6675V18.3673C66.1463 13.9892 64.7096 12.8012 63.003 12.8012C62.032 12.8012 59.701 12.9258 58.1479 14.925C58.3111 15.8354 58.39 16.7615 58.3834 17.6893V29.6704L61.2938 30.1369V30.3513H52.2979V30.134L54.9438 29.6675V18.3673C54.9438 13.9892 53.5071 12.8012 51.8005 12.8012C50.8991 12.781 50.0034 12.9628 49.1685 13.3356C48.3335 13.7083 47.577 14.264 46.9454 14.9685V29.6704L49.5092 30.1369V30.3513H40.8758V30.134L43.4766 29.6675V11.3495L40.8308 10.6252V10.3702H46.3421L46.8104 10.4571L46.4612 14.5136H46.6146C48.7128 12.2188 51.5835 9.8776 52.3217 9.84573C55.6211 10.0167 57.3674 11.4509 58.0288 14.2152C59.8148 12.0044 62.8416 9.88919 63.5401 9.84573C67.9667 10.1007 69.5939 12.8215 69.5939 17.669V29.6704L72.5122 30.134Z" fill="black"/>
<path d="M87.8661 25.8863C86.0994 27.7619 84.0677 29.3127 81.8495 30.4788C81.2044 30.6677 80.5378 30.7536 79.8703 30.7338C75.0549 30.7338 72.1445 26.5237 72.1445 20.6997C72.1445 15.1742 75.4438 11.0511 80.4895 9.86019C85.9637 9.69213 87.5936 13.5574 87.673 20.0188L75.2877 20.1058C75.3671 25.0779 77.37 28.1811 82.4315 28.1811C84.6435 28.1811 86.4665 26.6512 87.4375 25.4603L87.8661 25.8863ZM75.2877 19.7233L83.945 19.2973C84.0276 19.0953 84.0803 18.8801 84.1011 18.6599C84.1011 14.1948 82.0823 10.967 79.6031 11.0511C76.0259 11.1785 75.2877 14.2615 75.2877 19.7233Z" fill="black"/>
<path d="M88.3979 10.3702H93.9093L94.3776 10.4571L94.0654 14.2238H94.2188C96.309 11.9348 99.4603 9.90366 100.198 9.85151C104.625 10.1065 106.255 12.8272 106.255 17.6748V29.6704L108.856 30.1369V30.3513H100.161V30.134L102.807 29.6675V18.3673C102.807 13.9891 101.371 12.8012 99.664 12.8012C97.7488 12.7497 95.8926 13.5286 94.4993 14.9685V29.6704L97.1451 30.1369V30.3513H88.4376V30.134L91.0385 29.6675V11.3495L88.3926 10.6251L88.3979 10.3702Z" fill="black"/>
<path d="M107.541 11.1786L110.597 9.77616L113.198 5.05613L113.663 5.0996L113.507 10.4571H119.757V11.6885L118.283 11.9L113.703 11.7754L113.78 24.9938C113.74 27.2046 114.751 28.3955 115.875 28.439C117.119 28.439 117.894 28.0971 119.757 26.7005L119.989 26.9554C118.424 28.4047 116.763 29.7256 115.021 30.9076C112.033 30.6527 110.673 28.9518 110.403 25.8486L110.247 11.6943H110.131L107.53 11.6103L107.541 11.1786Z" fill="black"/>
<path d="M0.336023 20.0883L0 19.3553L18.222 9.3531L18.558 10.0862L0.336023 20.0883Z" fill="black"/>
</svg>
