<svg width="352" height="52" viewBox="0 0 352 52" fill="none" xmlns="http://www.w3.org/2000/svg">
<path fill-rule="evenodd" clip-rule="evenodd" d="M181.746 46.4016L176.174 51.9742L170.52 46.3208C174.489 50.2767 178.214 49.934 181.746 46.4016ZM176.118 42.9221C176.118 42.9221 178.095 46.8341 176.146 46.8201C174.197 46.8061 176.118 42.9221 176.118 42.9221ZM177.525 37.1622C177.19 36.8271 176.911 36.4503 176.679 36.0433C178.065 32.9556 177.347 28.8274 176.873 26.8724C178.829 27.3456 182.955 28.0644 186.042 26.6792C186.449 26.9106 186.826 27.1899 187.161 27.5249C188.329 28.6933 188.917 29.8326 188.905 30.9098C188.89 31.6419 188.603 32.3383 188.1 32.8638L188.06 32.9041L188.058 32.9061C188.01 32.9579 187.076 33.9563 185.852 33.978C185.193 33.9903 184.544 33.7123 183.921 33.1498C183.869 33.093 183.814 33.0365 183.758 32.9803C183.708 32.9302 183.657 32.8819 183.606 32.8354C183.136 32.3077 182.956 31.7629 182.948 31.271C183.277 31.791 183.855 32.1392 184.512 32.1439C185.526 32.1512 186.342 31.3348 186.335 30.3204C186.331 29.7192 186.038 29.1834 185.589 28.8451C185.416 28.6905 185.218 28.5666 185.003 28.4792C184.732 28.3695 184.442 28.32 184.153 28.3343C183.617 28.3838 183.118 28.6235 182.748 29.0102C182.036 29.7221 181.692 30.8323 181.948 31.9481C180.832 31.6932 179.723 32.0376 179.012 32.7481C178.625 33.1189 178.385 33.6175 178.335 34.1543C178.32 34.4438 178.37 34.7339 178.48 35.0041C178.569 35.2252 178.698 35.4286 178.858 35.6048C178.992 35.7783 179.158 35.9312 179.355 36.0535C180.222 36.5923 181.352 36.3324 181.878 35.4728C182.402 34.6175 182.131 33.4909 181.274 32.9489C181.765 32.9564 182.309 33.1362 182.836 33.6054C182.883 33.6562 182.931 33.7065 182.98 33.7562C183.037 33.8128 183.094 33.8676 183.151 33.9206C183.714 34.5433 183.992 35.1924 183.978 35.8537C183.957 37.077 182.958 38.0111 182.906 38.0596L182.904 38.0615L182.864 38.1018C182.339 38.6041 181.643 38.8903 180.912 38.9047C179.834 38.9172 178.694 38.3306 177.525 37.1622ZM176.753 37.9471C176.498 37.6919 176.27 37.4186 176.067 37.1306C175.869 37.4155 175.645 37.6853 175.394 37.9366C174.014 39.3158 172.608 39.9932 171.212 39.9473C170.194 39.9127 169.222 39.4934 168.491 38.774L168.477 38.7595C168.258 38.5418 167.089 37.3801 167.032 35.7856C167.02 35.4669 167.052 35.1542 167.127 34.8482C166.821 34.9237 166.509 34.9556 166.191 34.9438C164.595 34.8852 163.433 33.7168 163.216 33.4979L163.201 33.4833C162.482 32.753 162.063 31.7809 162.029 30.7635C161.984 29.3678 162.659 27.9601 164.039 26.5809C164.29 26.3297 164.56 26.1061 164.844 25.9076C164.556 25.7047 164.283 25.4769 164.028 25.2217C162.628 23.8225 161.932 22.4049 161.958 21.0097C161.977 19.9927 162.382 19.0266 163.091 18.3066L163.105 18.2921C163.32 18.0763 164.465 16.9245 166.06 16.8889C166.378 16.8816 166.691 16.9182 166.999 16.9982C166.919 16.691 166.882 16.3777 166.89 16.0591C166.924 14.4654 168.076 13.3203 168.292 13.1058L168.306 13.0914C169.027 12.3825 169.993 11.9772 171.011 11.9572C172.406 11.9313 173.822 12.6291 175.221 14.0283C175.476 14.2832 175.704 14.5562 175.906 14.8439C176.105 14.5589 176.329 14.2889 176.58 14.0375C177.96 12.6582 179.367 11.9824 180.763 12.0283C181.78 12.064 182.751 12.4825 183.483 13.2L183.496 13.2137C183.713 13.4291 184.883 14.5933 184.943 16.19C184.955 16.5087 184.922 16.8216 184.846 17.1279C185.153 17.0521 185.466 17.0199 185.785 17.0317C187.38 17.0904 188.544 18.2605 188.76 18.477L188.773 18.4907C189.491 19.2225 189.91 20.1944 189.947 21.212C189.993 22.6077 189.315 24.0139 187.936 25.3931C187.685 25.6446 187.415 25.8684 187.13 26.0671C187.417 26.2698 187.691 26.4975 187.946 26.7526C189.345 28.1518 190.043 29.5678 190.017 30.963C189.995 31.9802 189.59 32.9462 188.883 33.6677L188.869 33.6812C188.657 33.8947 187.509 35.0481 185.915 35.0839C185.596 35.0911 185.282 35.0545 184.975 34.9743C185.056 35.282 185.092 35.5958 185.086 35.9147C185.048 37.5107 183.895 38.6582 183.682 38.8705L183.668 38.884C182.947 39.591 181.981 39.9956 180.965 40.0167C179.57 40.0425 178.152 39.3463 176.753 37.9471ZM176.048 34.4951C176.623 32.3305 176.334 29.7856 176.002 28.0654C175.694 29.7815 175.442 32.3223 176.048 34.4951ZM174.608 37.142C174.939 36.8113 175.213 36.4379 175.439 36.0336C174.009 32.9258 174.669 28.8089 175.115 26.8607C173.167 27.3061 169.049 27.9655 165.941 26.5356C165.537 26.7613 165.164 27.0355 164.833 27.3662C163.682 28.5178 163.111 29.6503 163.139 30.7279C163.164 31.4596 163.46 32.1598 163.97 32.6921C163.985 32.7041 163.999 32.7178 164.011 32.7329L164.013 32.7349C164.062 32.7867 165.012 33.7979 166.235 33.8387C166.894 33.8619 167.537 33.5952 168.149 33.0455C168.203 32.9872 168.259 32.9292 168.316 32.8716C168.367 32.8205 168.419 32.7714 168.471 32.7242C168.929 32.2066 169.1 31.6686 169.101 31.1802C168.862 31.5614 168.48 31.8532 168.007 31.9701C167.026 32.2127 166.022 31.6109 165.765 30.6259C165.576 29.8992 165.846 29.1669 166.395 28.7354C166.572 28.5709 166.779 28.4407 167.005 28.3516C167.274 28.2457 167.563 28.2005 167.853 28.2189C168.391 28.2756 168.893 28.5232 169.269 28.9166C169.99 29.6376 170.35 30.7526 170.111 31.8648C171.223 31.6258 172.338 31.9859 173.059 32.7077C173.452 33.083 173.699 33.5849 173.756 34.1221C173.774 34.4119 173.729 34.7013 173.623 34.9699C173.535 35.1919 173.408 35.3953 173.248 35.5703C173.112 35.7479 172.939 35.9026 172.734 36.0231C171.865 36.5338 170.736 36.2373 170.213 35.3608C169.698 34.4988 169.961 33.3968 170.797 32.8748C170.308 32.8761 169.77 33.0475 169.252 33.5052C169.205 33.5573 169.156 33.6089 169.105 33.6598C169.048 33.7175 168.989 33.7733 168.931 33.8272C168.381 34.4399 168.114 35.0827 168.136 35.7406C168.177 36.9632 169.188 37.9135 169.24 37.9621L169.242 37.964C169.257 37.976 169.27 37.9897 169.282 38.0048C169.815 38.5152 170.516 38.812 171.248 38.8375C172.326 38.8655 173.457 38.2937 174.608 37.142ZM184.496 26.0481C182.329 26.6245 179.78 26.3347 178.059 26.0017C179.775 25.6935 182.32 25.4403 184.496 26.0481ZM173.904 25.9722C172.189 26.2797 169.652 26.5307 167.482 25.9263C169.643 25.3527 172.184 25.64 173.904 25.9722ZM165.932 25.295C169.019 23.9094 173.145 24.6272 175.101 25.1007C174.628 23.1456 173.909 19.0191 175.294 15.9319C175.062 15.5244 174.783 15.1471 174.447 14.8116C173.279 13.6433 172.14 13.0551 171.062 13.0676C170.33 13.0826 169.634 13.3694 169.108 13.8721L169.068 13.9123L169.066 13.9142C169.015 13.9621 168.018 14.898 167.994 16.1201C167.982 16.7794 168.26 17.4278 168.822 18.05C168.879 18.1032 168.936 18.1582 168.993 18.2149C169.043 18.2653 169.092 18.3162 169.138 18.3676C169.668 18.839 170.214 19.0185 170.707 19.0246C169.845 18.4828 169.573 17.352 170.1 16.4953C170.628 15.6367 171.758 15.3787 172.624 15.919C172.836 16.0515 173.013 16.2197 173.151 16.4107C173.295 16.5771 173.41 16.7659 173.493 16.9698C173.603 17.2399 173.652 17.53 173.638 17.8196C173.589 18.356 173.35 18.8545 172.962 19.2241C172.25 19.9358 171.14 20.2799 170.025 20.0244C170.28 21.1402 169.936 22.2503 169.225 22.961C168.855 23.349 168.356 23.5894 167.819 23.6384C167.529 23.6527 167.239 23.6032 166.969 23.4935C166.747 23.4033 166.543 23.2741 166.366 23.1126C165.929 22.7735 165.646 22.2452 165.641 21.6536C165.634 20.6392 166.45 19.8228 167.465 19.8301C168.119 19.8348 168.696 20.1808 169.025 20.6981C169.017 20.2075 168.837 19.6642 168.369 19.1374C168.317 19.0908 168.266 19.0423 168.216 18.992C168.159 18.9351 168.104 18.8779 168.051 18.8204C167.429 18.2586 166.78 17.981 166.119 17.9947C164.897 18.018 163.961 19.0157 163.914 19.0667L163.912 19.0686L163.871 19.1089C163.369 19.6339 163.083 20.3299 163.068 21.0613C163.056 22.1386 163.643 23.2794 164.811 24.4478C165.147 24.7835 165.524 25.0633 165.932 25.295ZM185.738 18.1368C185.079 18.115 184.435 18.3833 183.821 18.936C183.768 18.9929 183.714 19.0494 183.658 19.1056C183.608 19.1553 183.558 19.2032 183.507 19.2492C183.046 19.7695 182.874 20.3109 182.873 20.8019C183.219 20.2475 183.855 19.9019 184.557 19.958C185.569 20.0389 186.336 20.9242 186.27 21.9354C186.234 22.487 185.957 22.9621 185.549 23.267C185.378 23.4188 185.182 23.5397 184.968 23.624C184.699 23.7298 184.41 23.7751 184.12 23.7566C183.583 23.6994 183.081 23.4525 182.706 23.0605C181.984 22.3385 181.624 21.2236 181.863 20.1117C180.751 20.3508 179.635 19.9904 178.914 19.2695C178.522 18.8931 178.275 18.391 178.217 17.8535C178.198 17.5637 178.244 17.2743 178.349 17.0056C178.434 16.7921 178.554 16.5959 178.706 16.4254C178.825 16.2657 178.973 16.1233 179.148 16.0063C179.985 15.4461 181.128 15.6776 181.701 16.5234C182.273 17.3691 182.058 18.5089 181.22 19.0691C181.204 19.0801 181.187 19.0908 181.171 19.1012C181.662 19.1015 182.205 18.9301 182.726 18.4682C182.772 18.4174 182.82 18.367 182.869 18.3173C182.926 18.2611 182.982 18.2067 183.039 18.1541C183.592 17.5401 183.86 16.8957 183.837 16.235C183.796 14.9718 182.735 14.0038 182.735 14.0038L182.695 13.963C182.162 13.453 181.462 13.1568 180.73 13.1319C179.653 13.1038 178.52 13.6741 177.369 14.8258C177.036 15.1582 176.761 15.5337 176.534 15.9403C177.965 19.0477 177.306 23.1651 176.861 25.1139C178.809 24.6688 182.926 24.0093 186.033 25.4392C186.437 25.2136 186.81 24.9397 187.14 24.6094C188.292 23.4577 188.863 22.3268 188.835 21.2492C188.81 20.5169 188.513 19.8162 188.003 19.2834L187.962 19.2426L187.96 19.2406C187.911 19.1882 186.962 18.1761 185.738 18.1368ZM175.926 17.4837C176.529 19.6494 176.28 22.1795 175.974 23.8937C175.643 22.1763 175.356 19.6422 175.926 17.4837ZM180.324 21.6529C180.469 21.7979 180.568 21.9821 180.609 22.1821C180.65 22.3822 180.632 22.5891 180.555 22.7767C180.478 22.9643 180.348 23.1241 180.179 23.2361C180.01 23.348 179.812 23.407 179.608 23.4055C179.405 23.404 179.205 23.3422 179.035 23.2279C178.865 23.1135 178.732 22.9517 178.652 22.763C178.573 22.5743 178.551 22.3671 178.589 22.1676C178.628 21.9681 178.724 21.7854 178.867 21.6424C179.059 21.4507 179.32 21.3441 179.593 21.346C179.866 21.348 180.129 21.4584 180.324 21.6529ZM172.117 21.3122C171.918 21.3504 171.735 21.4472 171.592 21.5902C171.497 21.6849 171.422 21.7976 171.371 21.922C171.32 22.0464 171.294 22.18 171.295 22.3151C171.295 22.4502 171.323 22.5842 171.375 22.7095C171.428 22.8347 171.505 22.9487 171.601 23.0449C171.746 23.1904 171.93 23.2902 172.13 23.3317C172.33 23.3733 172.537 23.3547 172.725 23.2784C172.913 23.2021 173.073 23.0715 173.185 22.903C173.297 22.7346 173.356 22.5359 173.355 22.3321C173.354 22.1284 173.292 21.9287 173.178 21.7584C173.064 21.588 172.902 21.4547 172.713 21.3753C172.524 21.2959 172.317 21.2739 172.117 21.3122ZM171.655 30.3217C171.51 30.1768 171.41 29.9926 171.368 29.7925C171.327 29.5923 171.345 29.3852 171.422 29.1973C171.498 29.0094 171.629 28.8493 171.798 28.7372C171.966 28.6251 172.165 28.566 172.369 28.5675C172.573 28.5689 172.773 28.6309 172.943 28.7454C173.113 28.86 173.246 29.022 173.325 29.211C173.405 29.4 173.426 29.6074 173.388 29.807C173.349 30.0066 173.252 30.1893 173.108 30.3321C172.917 30.5229 172.656 30.6289 172.384 30.6269C172.112 30.625 171.85 30.5152 171.655 30.3217ZM179.861 30.6635C180.061 30.6248 180.243 30.5276 180.386 30.3842C180.577 30.1924 180.683 29.9314 180.681 29.6587C180.679 29.386 180.568 29.1237 180.374 28.9295C180.229 28.7844 180.045 28.685 179.844 28.6438C179.644 28.6027 179.437 28.6217 179.25 28.6984C179.062 28.7752 178.902 28.9062 178.79 29.0748C178.678 29.2435 178.62 29.4424 178.621 29.6461C178.623 29.8499 178.685 30.0494 178.8 30.2195C178.914 30.3896 179.076 30.5226 179.265 30.6016C179.454 30.6806 179.662 30.7021 179.861 30.6635ZM176.674 42.7526C176.674 42.7526 180.561 44.7825 178.987 45.9233C177.412 47.0642 176.674 42.7526 176.674 42.7526ZM177.01 42.2873C177.01 42.2873 181.313 41.6681 180.722 43.5223C180.13 45.3765 177.01 42.2873 177.01 42.2873ZM175.229 42.2748C175.229 42.2748 172.147 45.31 171.535 43.4565C170.923 41.603 175.229 42.2748 175.229 42.2748ZM175.573 42.7446C175.573 42.7446 174.891 47.0382 173.305 45.8824C171.719 44.7266 175.573 42.7446 175.573 42.7446ZM176.766 40.6123C176.737 40.4815 176.67 40.3618 176.573 40.2683C176.445 40.1452 176.275 40.0764 176.099 40.0765C175.922 40.0767 175.754 40.1459 175.63 40.2693C175.536 40.363 175.473 40.4829 175.448 40.6137C175.423 40.7445 175.438 40.8802 175.491 41.0037C175.543 41.1272 175.631 41.2328 175.743 41.3071C175.855 41.3813 175.986 41.4209 176.12 41.4208C176.253 41.4206 176.383 41.3808 176.493 41.3062C176.602 41.2317 176.687 41.126 176.735 41.0024C176.784 40.8788 176.795 40.743 176.766 40.6123ZM192.921 26.1179C192.921 26.1179 196.833 28.095 196.819 26.146C196.805 24.197 192.921 26.1179 192.921 26.1179ZM192.752 26.6736C192.752 26.6736 194.782 30.561 195.923 28.9867C197.064 27.4124 192.752 26.6736 192.752 26.6736ZM192.285 27.0117C192.285 27.0117 191.666 31.315 193.52 30.7234C195.375 30.1318 192.285 27.0117 192.285 27.0117ZM192.273 25.2296C192.273 25.2296 195.309 22.1472 193.455 21.5352C191.602 20.9232 192.273 25.2296 192.273 25.2296ZM192.744 25.5726C192.744 25.5726 197.039 24.8894 195.882 23.3048C194.725 21.7203 192.744 25.5726 192.744 25.5726ZM190.276 26.5808C190.011 26.3163 190.008 25.8904 190.269 25.6297C190.53 25.3689 190.955 25.372 191.22 25.6365C191.484 25.9011 191.488 26.3269 191.227 26.5876C190.966 26.8484 190.54 26.8453 190.276 26.5808ZM159.048 25.8516C159.048 25.8516 155.136 23.8746 155.15 25.8236C155.164 27.7726 159.048 25.8516 159.048 25.8516ZM159.224 25.3025C159.224 25.3025 157.193 21.4135 156.053 22.9893C154.914 24.5652 159.224 25.3025 159.224 25.3025ZM159.689 24.9662C159.689 24.9662 160.307 20.6613 158.454 21.2545C156.602 21.8476 159.689 24.9662 159.689 24.9662ZM159.701 26.7448C159.701 26.7448 156.666 29.8271 158.519 30.4391C160.373 31.0512 159.701 26.7448 159.701 26.7448ZM159.23 26.4016C159.23 26.4016 154.938 27.0848 156.094 28.6709C157.25 30.2571 159.23 26.4016 159.23 26.4016ZM161.355 25.201C161.486 25.2299 161.605 25.2968 161.699 25.3934C161.761 25.456 161.811 25.5301 161.845 25.6116C161.879 25.6931 161.896 25.7803 161.896 25.8681C161.896 25.9559 161.878 26.0426 161.844 26.123C161.81 26.2035 161.761 26.2761 161.698 26.3367C161.604 26.4304 161.484 26.4937 161.354 26.5185C161.223 26.5433 161.087 26.5285 160.963 26.476C160.84 26.4235 160.734 26.3357 160.66 26.2237C160.586 26.1118 160.546 25.9807 160.546 25.8472C160.547 25.7138 160.586 25.5839 160.661 25.4743C160.735 25.3646 160.841 25.28 160.965 25.2314C161.088 25.1827 161.224 25.1721 161.355 25.201ZM175.851 9.0479C175.851 9.0479 173.874 5.13592 175.823 5.14994C177.772 5.16397 175.851 9.0479 175.851 9.0479ZM175.302 9.22356C175.302 9.22356 171.413 7.19213 172.989 6.05285C174.565 4.91357 175.302 9.22356 175.302 9.22356ZM174.964 9.69032C174.964 9.69032 170.659 10.3079 171.252 8.45531C171.845 6.60269 174.964 9.69032 174.964 9.69032ZM176.744 9.70024C176.744 9.70024 179.827 6.66501 180.439 8.51851C181.051 10.372 176.744 9.70024 176.744 9.70024ZM176.401 9.22969C176.401 9.22969 177.086 4.93616 178.67 6.0935C180.255 7.25084 176.401 9.22969 176.401 9.22969ZM175.393 11.6985C175.129 11.434 175.125 11.0081 175.386 10.7474C175.647 10.4866 176.073 10.4897 176.337 10.7542C176.602 11.0188 176.605 11.4446 176.344 11.7053C176.083 11.9661 175.658 11.963 175.393 11.6985ZM186.779 41.3708C186.161 40.7528 185.811 39.9187 185.805 39.0516C185.799 38.1845 186.137 37.3553 186.745 36.7462C187.355 36.1378 188.184 35.7994 189.051 35.8053C189.918 35.8113 190.753 36.1611 191.371 36.7779L191.991 36.1587C191.205 35.3758 190.146 34.9319 189.045 34.9242C187.944 34.9166 186.891 35.3459 186.117 36.1181C185.346 36.892 184.917 37.9446 184.925 39.0453C184.933 40.1459 185.377 41.2048 186.159 41.9899L186.779 41.3708ZM187.11 39.8758C187.22 40.1351 187.379 40.3711 187.578 40.5702L190.57 37.578C190.168 37.1752 189.624 36.9467 189.058 36.9426C188.493 36.9385 187.952 37.1593 187.555 37.5563C187.358 37.7528 187.203 37.9867 187.098 38.2445C186.993 38.5024 186.94 38.7792 186.942 39.0591C186.944 39.339 187.001 39.6165 187.11 39.8758ZM191.216 15.4172C190.607 16.0255 189.778 16.3637 188.911 16.3574C188.044 16.3512 187.21 16.0011 186.592 15.3839C185.975 14.7658 185.624 13.9316 185.618 13.0643C185.611 12.197 185.949 11.3675 186.557 10.7578L185.929 10.1297C185.157 10.9039 184.728 11.9569 184.737 13.058C184.745 14.159 185.189 15.2182 185.973 16.0031C186.758 16.7858 187.817 17.2297 188.917 17.2376C190.018 17.2455 191.071 16.8168 191.845 16.0454L191.216 15.4172ZM189.718 15.0625C189.976 14.9571 190.209 14.8015 190.406 14.6048L187.37 11.5692C186.973 11.9662 186.752 12.507 186.757 13.0725C186.761 13.638 186.989 14.1819 187.392 14.5847C187.591 14.7841 187.827 14.9427 188.087 15.0516C188.346 15.1605 188.624 15.2176 188.904 15.2194C189.184 15.2213 189.46 15.168 189.718 15.0625ZM165.197 10.6036C165.789 11.2266 166.118 12.0526 166.113 12.9056C166.108 13.7585 165.77 14.5711 165.171 15.17C164.572 15.7689 163.759 16.1069 162.906 16.1118C162.053 16.1168 161.227 15.7883 160.604 15.1964L159.985 15.8156C160.775 16.5708 161.825 16.9909 162.91 16.9862C163.995 16.9815 165.03 16.5523 165.791 15.7905C166.553 15.0287 166.982 13.9947 166.987 12.9096C166.992 11.8246 166.572 10.7747 165.816 9.98444L165.197 10.6036ZM164.893 12.1C164.776 11.8378 164.607 11.6012 164.397 11.4043L161.405 14.3965C161.602 14.6064 161.838 14.7751 162.1 14.8927C162.363 15.0103 162.645 15.0743 162.931 15.0809C163.216 15.0876 163.5 15.0367 163.764 14.9314C164.028 14.8261 164.268 14.6684 164.468 14.4678C164.669 14.2672 164.827 14.0277 164.932 13.7635C165.037 13.4994 165.088 13.216 165.081 12.9303C165.075 12.6445 165.011 12.3621 164.893 12.1ZM160.758 36.5574C161.372 35.9745 162.194 35.6579 163.047 35.6751C163.9 35.6923 164.717 36.042 165.325 36.6496C165.933 37.2572 166.282 38.0747 166.3 38.9278C166.317 39.781 166 40.6023 165.417 41.2168L166.045 41.845C166.789 41.0655 167.194 40.0216 167.174 38.9363C167.154 37.8511 166.71 36.8108 165.937 36.0379C165.164 35.2651 164.124 34.821 163.038 34.8007C161.953 34.7804 160.909 35.1854 160.13 35.9293L160.758 36.5574ZM162.258 36.8827C161.998 36.9965 161.764 37.1619 161.57 37.369L164.605 40.4045C164.812 40.2106 164.978 39.9764 165.092 39.7159C165.205 39.4554 165.265 39.1739 165.268 38.8882C165.27 38.6025 165.215 38.3184 165.106 38.0527C164.997 37.787 164.836 37.5453 164.633 37.3417C164.429 37.1382 164.187 36.9771 163.922 36.8679C163.656 36.7588 163.372 36.7038 163.086 36.7064C162.8 36.7089 162.519 36.7689 162.258 36.8827ZM201.974 26.1743L196.401 31.747C199.934 28.2145 200.283 24.483 196.321 20.5209L201.974 26.1743ZM155.572 20.2275L149.999 25.8002L155.653 31.4536C151.697 27.4853 152.046 23.7662 155.572 20.2275ZM175.8 2.89911e-05L170.227 5.57271C173.766 2.04653 177.491 1.69135 181.453 5.65348L175.8 2.89911e-05Z" fill="#777357"/>
<path opacity="0.48" d="M0 26.5001H84" stroke="#777357"/>
<path opacity="0.48" d="M267 26.5001H352" stroke="#777357"/>
</svg>
